<?xml version="1.0" standalone="no"?>
<!DOCTYPE svg PUBLIC "-//W3C//DTD SVG 20010904//EN"
 "http://www.w3.org/TR/2001/REC-SVG-20010904/DTD/svg10.dtd">
<svg version="1.0" xmlns="http://www.w3.org/2000/svg"
 width="1200.000000pt" height="1200.000000pt" viewBox="0 0 1200.000000 1200.000000"
 preserveAspectRatio="xMidYMid meet">
<metadata>
Created by potrace 1.11, written by Peter Selinger 2001-2013
</metadata>
<g transform="translate(0.000000,1200.000000) scale(0.100000,-0.100000)"
fill="#000000" stroke="none">
<path d="M5795 11306 c-47 -17 -61 -29 -80 -65 -15 -31 -17 -97 -15 -892 1
-734 -1 -862 -14 -887 -8 -15 -102 -115 -210 -222 -107 -107 -291 -291 -408
-409 -117 -117 -269 -268 -337 -335 -69 -66 -184 -181 -258 -254 -73 -73 -145
-137 -159 -142 -17 -7 -430 -10 -1160 -10 -769 0 -1150 -4 -1184 -11 -41 -9
-63 -23 -120 -76 -38 -36 -83 -89 -100 -119 -16 -30 -34 -54 -38 -54 -4 0 -18
-17 -32 -38 -14 -20 -43 -60 -65 -89 -22 -28 -61 -80 -86 -115 -101 -140 -268
-360 -279 -368 -4 -3 -19 -25 -33 -50 -15 -25 -40 -60 -57 -79 -16 -18 -30
-37 -30 -41 0 -4 -24 -35 -52 -68 -29 -34 -68 -83 -86 -109 -18 -26 -54 -77
-80 -112 -26 -35 -54 -75 -62 -90 -8 -14 -20 -30 -26 -36 -24 -22 -221 -290
-252 -343 -37 -63 -47 -72 -79 -72 -22 0 -23 -4 -23 -75 0 -70 1 -75 22 -75
12 0 43 -14 69 -30 l47 -31 1405 1 c1590 0 1436 -8 1543 85 32 28 153 146 268
263 116 118 266 269 334 335 262 260 1042 1045 1139 1148 160 168 524 519 538
519 10 0 34 -13 54 -29 36 -29 297 -287 567 -563 77 -78 206 -208 287 -288 80
-80 439 -438 796 -797 543 -544 657 -654 688 -662 44 -12 2811 -17 2859 -5 74
18 112 78 100 158 -5 32 -19 56 -51 92 -24 27 -44 54 -45 60 0 6 -7 17 -15 24
-8 6 -30 36 -50 66 -20 29 -50 68 -66 86 -17 18 -39 50 -50 70 -10 20 -23 40
-29 43 -6 4 -32 39 -59 78 -27 40 -60 83 -74 97 -13 14 -26 31 -28 37 -2 6
-16 26 -31 45 -44 54 -180 235 -216 286 -18 26 -48 67 -67 92 -53 68 -128 173
-144 200 -8 14 -27 41 -42 60 -96 120 -149 189 -149 195 0 4 -15 24 -32 45
-53 60 -68 80 -68 89 0 5 -3 11 -8 13 -11 5 -72 85 -72 94 0 14 -102 102 -140
121 -33 17 -110 18 -1198 20 -984 3 -1167 5 -1190 17 -15 8 -173 159 -352 336
-1021 1010 -1019 1007 -1025 1042 -12 69 -13 536 -1 560 17 34 59 35 115 1
101 -62 186 -93 283 -104 112 -13 174 -7 260 25 36 14 91 32 124 40 32 8 88
29 124 47 36 17 79 33 95 36 17 2 41 6 55 9 65 12 281 12 355 -1 95 -16 112
-22 189 -69 65 -39 82 -43 110 -21 18 14 19 36 18 569 -1 613 0 599 -64 629
-18 8 -53 23 -78 32 -25 10 -58 23 -75 30 -88 37 -198 54 -331 49 -103 -3
-154 -14 -228 -50 -27 -13 -84 -34 -125 -45 -42 -12 -98 -32 -124 -46 -60 -30
-193 -47 -306 -40 -71 5 -98 13 -175 49 -50 23 -113 58 -141 78 -27 20 -59 40
-70 44 -32 13 -167 14 -200 2z"/>
<path d="M5800 7631 c0 -3 -14 -15 -30 -26 -16 -11 -30 -24 -30 -28 0 -5 -49
-57 -109 -117 -60 -60 -107 -110 -106 -112 2 -2 -46 -51 -106 -110 -60 -58
-109 -105 -109 -103 0 1 -79 -75 -175 -170 -96 -96 -175 -179 -175 -186 0 -7
-3 -10 -6 -6 -3 3 -23 -13 -43 -36 -65 -75 -262 -267 -273 -267 -6 0 -9 -2 -6
-6 3 -3 -40 -48 -96 -101 -55 -53 -123 -122 -151 -152 -27 -30 -78 -83 -112
-117 -34 -34 -59 -65 -56 -68 4 -3 1 -6 -5 -6 -5 0 -74 -63 -152 -141 -78 -78
-157 -147 -175 -155 -19 -7 -37 -18 -40 -24 -4 -6 -10 -8 -15 -5 -4 3 -11 -2
-14 -11 -9 -24 -75 -50 -151 -59 -55 -6 -135 -27 -135 -35 0 -4 -15 -8 -32 -9
-65 -4 -2510 -6 -2514 -2 -7 8 -69 12 -91 6 -52 -13 -50 83 -49 -1968 1 -1050
-2 -1911 -7 -1914 -4 -2 -5 -7 -3 -11 5 -8 -14 -25 -34 -31 -8 -3 -51 -7 -95
-11 -81 -6 -121 -22 -130 -51 -9 -26 -50 -59 -78 -61 l-26 -2 -1 -218 c0 -210
0 -218 19 -218 11 0 23 -5 26 -10 4 -6 12 -7 18 -4 7 4 9 4 6 0 -11 -12 54
-75 86 -84 31 -8 10398 -8 10425 0 51 16 81 40 116 93 17 26 19 50 20 215 2
209 2 209 -74 286 l-50 51 -71 2 c-111 3 -144 15 -157 53 -5 16 -8 2619 -4
3758 0 59 -3 73 -20 99 -16 24 -78 38 -108 26 -9 -4 -575 -8 -1257 -8 l-1240
0 -79 23 c-44 12 -95 24 -115 25 -61 7 -90 15 -124 35 -17 11 -27 20 -22 20 6
0 -15 14 -45 31 -30 18 -75 50 -99 73 -99 93 -131 126 -131 134 0 5 -10 14
-23 21 -12 6 -31 25 -42 41 -11 17 -24 30 -28 30 -10 0 -49 39 -90 88 -15 19
-27 31 -27 28 0 -3 -15 11 -34 31 -19 21 -214 219 -435 441 -221 222 -401 406
-401 410 0 4 -14 16 -30 27 -16 11 -30 26 -30 33 0 6 -4 12 -8 12 -8 0 -359
346 -484 478 -64 67 -91 82 -140 80 -10 -1 -18 -4 -18 -7z m-134 -1326 c13 -3
25 -16 29 -32 6 -26 8 -579 2 -615 -8 -48 -61 -83 -117 -80 -112 8 -162 5
-170 -8 -6 -8 -10 -11 -10 -6 0 5 -9 -1 -20 -14 -21 -24 -41 -84 -35 -103 2
-7 6 -28 8 -47 15 -116 15 -116 297 -114 260 1 274 5 312 79 13 26 15 94 14
460 -3 519 -12 482 118 485 57 2 112 -16 135 -44 8 -10 37 -29 64 -43 27 -13
59 -35 72 -49 12 -13 28 -24 34 -24 7 0 9 -4 6 -10 -3 -5 0 -10 8 -10 17 0
109 -85 100 -94 -3 -3 -2 -6 3 -6 5 0 20 -18 34 -40 14 -22 28 -40 33 -40 4 0
5 -4 2 -10 -3 -5 -2 -10 3 -10 6 0 20 -21 31 -46 12 -25 33 -64 47 -85 13 -21
26 -49 28 -61 3 -13 5 -23 7 -23 1 0 3 -9 4 -20 3 -25 16 -112 21 -142 2 -13
6 -35 9 -50 6 -38 7 -132 0 -163 -3 -14 -7 -38 -10 -55 -21 -121 -38 -176 -75
-235 -5 -8 -20 -40 -35 -70 -14 -30 -39 -71 -55 -90 -16 -19 -35 -41 -40 -47
-6 -7 -9 -13 -6 -13 2 0 -9 -13 -26 -30 -16 -16 -32 -30 -35 -30 -3 0 -14 -11
-25 -25 -11 -14 -54 -49 -97 -77 -42 -28 -78 -55 -81 -58 -5 -7 -42 -21 -65
-26 -6 -1 -32 -11 -58 -23 -88 -40 -101 -44 -182 -57 -43 -7 -152 -7 -200 0
-81 12 -111 19 -121 27 -6 5 -14 6 -17 2 -4 -3 -7 0 -7 7 0 7 -3 11 -6 8 -3
-4 -30 5 -60 18 -30 13 -56 23 -57 21 -2 -1 -26 12 -53 30 -27 18 -58 38 -69
45 -33 21 -120 92 -124 101 -1 4 -20 24 -40 43 -21 19 -44 47 -52 62 -8 15
-31 49 -51 75 -21 27 -38 55 -38 64 0 17 -41 116 -51 123 -50 35 -71 424 -30
533 6 15 7 27 3 27 -4 0 1 7 11 14 10 8 18 17 17 20 0 4 6 19 13 34 8 15 19
48 26 73 7 25 23 58 36 73 13 15 38 51 56 81 18 30 37 55 41 55 4 0 8 7 8 15
0 8 3 15 8 15 4 0 36 27 72 60 36 32 81 67 100 77 19 10 55 32 80 49 48 33 70
43 110 51 13 2 26 6 28 7 3 4 59 -2 88 -9z m-3381 -1728 c121 -1 227 -5 235
-7 22 -8 47 -42 57 -80 5 -19 8 -168 8 -330 -1 -271 -2 -298 -20 -327 -12 -21
-30 -35 -49 -39 -48 -11 -626 -11 -626 0 0 5 -3 7 -6 3 -8 -8 -33 16 -27 26 2
4 0 7 -5 7 -12 0 -13 3 -15 340 -3 292 2 360 28 385 22 22 58 30 128 28 39 -2
171 -4 292 -6z m5741 0 c4 -4 14 -7 22 -7 7 0 25 -9 39 -20 14 -11 22 -20 18
-20 -4 0 0 -11 8 -24 13 -20 16 -69 17 -318 0 -187 -3 -306 -10 -323 -13 -35
-58 -75 -85 -76 -11 -1 -144 -2 -295 -3 -402 -2 -381 -23 -381 379 1 325 4
344 63 386 32 23 39 24 258 27 124 1 245 3 270 5 59 3 68 2 76 -6z m1789 -21
c32 -32 38 -91 38 -386 -1 -317 -3 -332 -54 -368 -20 -14 -63 -16 -313 -17
-250 0 -295 2 -327 17 -62 28 -63 31 -64 358 -1 437 -20 413 320 417 127 2
246 4 265 6 45 3 121 -12 135 -27z m-5567 13 c6 -1 12 -6 12 -11 0 -4 7 -8 15
-8 8 0 15 -7 15 -15 0 -8 5 -15 12 -15 6 0 9 -3 5 -6 -3 -3 -1 -18 5 -33 6
-15 10 -135 9 -301 0 -342 -1 -348 -59 -376 -33 -15 -72 -18 -334 -18 -179 -1
-298 2 -298 8 0 5 -3 7 -6 3 -9 -8 -28 13 -46 48 -12 25 -14 87 -13 340 1 215
5 316 13 331 6 12 8 24 5 28 -3 3 1 6 11 6 9 0 19 6 22 14 4 11 58 13 312 11
169 -2 313 -5 320 -6z m1712 -1093 c32 -5 52 -9 89 -18 8 -1 22 -9 30 -16 9
-7 18 -11 21 -10 3 2 20 -10 36 -27 17 -16 46 -44 65 -60 41 -36 89 -92 89
-103 0 -4 8 -12 18 -19 17 -10 33 -60 48 -149 2 -16 12 -51 21 -79 14 -44 17
-123 18 -645 1 -327 0 -610 -3 -628 -3 -24 -13 -39 -35 -53 -29 -17 -59 -18
-522 -18 -491 0 -492 0 -516 22 -13 12 -26 29 -27 37 -9 38 -2 1239 7 1280 5
25 12 63 16 85 9 57 21 94 34 105 3 3 19 25 36 50 16 25 37 53 47 62 9 10 20
24 25 31 4 7 28 29 53 48 25 18 48 39 52 44 4 6 8 6 8 2 0 -5 14 2 32 14 64
46 219 65 358 45z m-3445 -345 c15 -1 59 -44 64 -61 2 -8 4 -154 5 -325 0
-275 -2 -314 -18 -347 -11 -23 -27 -39 -44 -43 -15 -4 -158 -8 -319 -8 -222 0
-296 3 -308 13 -8 7 -15 9 -15 4 -1 -5 -11 9 -22 31 -21 38 -22 53 -22 348 -1
318 5 377 40 377 8 0 14 3 14 8 0 5 558 8 625 3z m1733 -3 c6 -1 12 -5 12 -9
0 -4 9 -11 21 -14 11 -4 25 -19 31 -33 9 -25 13 -540 4 -617 -3 -33 -26 -75
-39 -75 -4 0 -5 -6 -1 -12 4 -7 4 -10 -1 -6 -4 4 -17 2 -28 -3 -12 -7 -122
-11 -301 -12 -250 0 -285 1 -318 17 -21 10 -38 25 -38 32 0 8 -4 14 -8 14 -13
0 -12 -1 -15 325 -2 180 1 314 7 334 20 65 29 67 362 64 165 -2 305 -4 312 -5z
m3783 3 c14 0 38 -12 52 -25 14 -13 29 -21 32 -18 3 4 3 -1 -1 -11 -3 -9 -1
-17 4 -17 7 0 11 -98 12 -301 0 -284 -1 -304 -20 -344 -33 -68 -34 -68 -360
-68 -275 1 -291 2 -323 22 -54 33 -68 73 -66 201 1 96 1 275 0 365 -1 79 3
110 21 143 13 26 59 50 103 54 27 3 480 2 546 -1z m1749 -2 c20 -5 42 -27 58
-58 18 -34 21 -605 4 -638 -6 -11 -9 -23 -6 -26 3 -2 -6 -14 -20 -25 -14 -10
-23 -21 -21 -24 3 -3 -3 -5 -13 -6 -39 -4 -578 -2 -592 2 -49 13 -60 22 -76
54 -16 33 -18 72 -19 327 -1 197 3 301 11 324 12 35 46 60 97 70 31 7 553 6
577 0z"/>
</g>
</svg>
